<svg class="logo" xmlns="http://www.w3.org/2000/svg" version="1.1" x="0" y="0" width="180" height="54" viewBox="-161.6 173.8 180 54" enable-background="new -161.6 173.8 180 54" xml:space="preserve"><path class="coplex-logo-fill" fill="#32B493" d="M-94 227.4c-0.6 0-1.1-0.6-1.1-1.1v-19.8c-2.7 0.8-4.9 1.3-8 0.7 -2.8 4.9-7.5 7.4-12.4 7.4 -4.3 0-8.4-1.8-11.4-5.9 -13.3 12.8-34.6 3.2-34.6-14.5 0-14.8 15.5-24.7 28.9-18.4 0.6 0.3 0.8 1 0.6 1.5 0 0-2 3.5-2.9 5.3 -0.3 0.6-0.8 0.7-1.4 0.4 -8.2-3.4-16.8 2.8-16.8 11.3 0 13.8 20.1 17 23.9 3.2 1.8-6.4 7.5-10.9 14-10.9 6.8 0 13.3 5.2 14 13.1 3.5 0.4 6.1-1.3 7.4-3.9 2.1-5.4 7.4-9.1 13.1-9.1 8.2 0 15.9 7.4 13.5 18 4.5-2.7 7.7-5.6 7.7-11.3v-18.3c0-0.6 0.6-1.1 1.1-1.1h5.6c0.6 0 1.1 0.6 1.1 1.1v28.1c0 2.1 1.7 3.9 3.8 3.9 1.4 0 2-0.6 4.5-2.1 -2.8-9.4 4-18.3 13.4-18.3 5.9 0 11 3.6 13.1 9.1 0.1 0.4 0 1-0.4 1.3 -4 2.7-11.9 7.8-14.5 9.6 6.4 1.5 5.9-3.5 14-3.5 3.2 0 6.6 1.1 9.2 3.1 2.1-2.8 3.6-3.9 7.1-5.4 -6.4-2.5-9.6-7.4-10.1-12.7 0-0.7 0.4-1.3 1.1-1.3 0 0 3.8 0 5.6 0 0.4 0 1 0.3 1.1 1 0.7 3.9 4 6 7.1 6 3.6 0 6.6-2.7 7.1-6 0.1-0.6 0.6-1 1.1-1 2 0 5.6 0 5.6 0 0.7 0 1.1 0.6 1.1 1.3 -0.6 5.2-3.6 9.9-9.8 12.6 6.3 2.5 9.6 7.4 10.1 12.7 0 0.7-0.4 1.3-1.1 1.3 0 0-3.8 0-5.6 0 -0.4 0-1-0.3-1.1-0.8 -0.7-3.6-3.6-6-7.3-6s-6.6 2.7-7.3 6c-0.1 0.6-0.6 1-1.1 1 -2 0-5 0-6.4 0 -0.4 0-0.7-0.1-0.8-0.4 -1.4-2-3.5-3.2-5.9-3.2 -4.6 0-5.4 4-12.3 3.9 -3.5 0-6.4-1.1-9.1-3.4 -2.2 1.4-4.6 3.5-8.8 3.5 -5 0-8.2-2.7-10.5-7.1 -6.1 6-17.9 9.4-28.6 5.4v13.1c0 0.6-0.6 1.1-1.1 1.1H-94V227.4zM-80.9 194.3c-3.5 0-6.3 2.8-6.3 6.3s2.8 6.3 6.3 6.3c3.5 0 6.3-2.8 6.3-6.3C-74.8 197.1-77.5 194.3-80.9 194.3zM-115.4 194.3c-3.5 0-6.3 2.8-6.3 6.3s2.8 6.3 6.3 6.3 6.3-2.8 6.3-6.3S-112 194.3-115.4 194.3zM-36.6 200l8.1-5.4C-32.4 193.5-36.2 196.1-36.6 200z"></path></svg>
